<svg width="214" height="199" viewBox="0 0 214 199" fill="none" xmlns="http://www.w3.org/2000/svg">
<path d="M40 80C62.0914 80 80 62.0914 80 40C80 17.9086 62.0914 0 40 0C17.9086 0 0 17.9086 0 40C0 62.0914 17.9086 80 40 80ZM11.5531 26.2127C10.7642 23.0569 13.151 20 16.4038 20H29.9999C32.7614 20 34.9999 22.2386 34.9999 25V25.5818C36.5489 25.2014 38.2472 25 39.9999 25C41.7527 25 43.451 25.2014 44.9999 25.5818V25C44.9999 22.2386 47.2385 20 49.9999 20H63.5961C66.8489 20 69.2357 23.0569 68.4468 26.2127L66.8936 32.4254C65.7807 36.877 61.7809 40 57.1922 40H54.9999C49.7488 40 45.443 35.9525 45.0321 30.8071C43.7019 30.3218 41.9648 30 39.9999 30C38.0351 30 36.298 30.3218 34.9678 30.8071C34.5569 35.9525 30.2511 40 24.9999 40H22.8077C18.219 40 14.2192 36.877 13.1063 32.4254L11.5531 26.2127ZM24.8397 48.7482C27.8694 53.9855 33.5258 57.5 40.0001 57.5C46.4744 57.5 52.1308 53.9855 55.1604 48.7482C55.8518 47.553 57.3811 47.1446 58.5763 47.836C59.7714 48.5273 60.1798 50.0567 59.4885 51.2518C55.6019 57.9706 48.3314 62.5 40.0001 62.5C31.6688 62.5 24.3983 57.9706 20.5117 51.2518C19.8204 50.0567 20.2288 48.5273 21.4239 47.836C22.6191 47.1446 24.1484 47.553 24.8397 48.7482Z" fill="#F4ABBA" fill-opacity="0.6"/>
<path d="M174 0C196.091 0 214 17.9086 214 40C214 62.0914 196.091 80 174 80C151.909 80 134 62.0914 134 40C134 17.9086 151.909 0 174 0ZM169 32.5C169 28.3579 166.761 25 164 25C161.239 25 159 28.3579 159 32.5C159 36.6421 161.239 40 164 40C166.761 40 169 36.6421 169 32.5ZM155.424 47.836C154.229 48.5273 153.82 50.0567 154.512 51.2518C158.398 57.9706 165.669 62.5 174 62.5C182.331 62.5 189.602 57.9706 193.488 51.2518C194.18 50.0567 193.771 48.5273 192.576 47.836C191.381 47.1446 189.852 47.553 189.16 48.7482C186.131 53.9855 180.474 57.5 174 57.5C167.526 57.5 161.869 53.9855 158.84 48.7482C158.148 47.553 156.619 47.1446 155.424 47.836ZM181.184 31.2843C180.513 30.0778 178.991 29.6441 177.784 30.3155C176.578 30.9869 176.144 32.5092 176.815 33.7157C178.469 36.6877 181.603 38.75 185.25 38.75C188.897 38.75 192.031 36.6877 193.684 33.7157C194.356 32.5092 193.922 30.9869 192.716 30.3155C191.509 29.6441 189.987 30.0778 189.315 31.2843C188.474 32.7959 186.944 33.75 185.25 33.75C183.556 33.75 182.026 32.7959 181.184 31.2843Z" fill="#F4ABBA" fill-opacity="0.6"/>
<path d="M40 119C17.9086 119 0 136.909 0 159C0 181.091 17.9086 199 40 199C62.0914 199 80 181.091 80 159C80 136.909 62.0914 119 40 119ZM23.7785 141.832C27.5935 134.711 43.8758 141.229 28.5394 159C6.06161 151.019 16.7895 137.508 23.7785 141.832ZM56.5729 169.067C57.5442 168.837 58.5592 169.207 59.1548 170.008C59.7505 170.809 59.8126 171.888 59.3127 172.752C55.4261 179.471 48.1557 184 39.8244 184C31.493 184 24.2226 179.471 20.336 172.752C19.8362 171.888 19.8982 170.809 20.4939 170.008C21.0895 169.207 22.1045 168.837 23.0758 169.067L23.1009 169.073L23.1848 169.093L23.519 169.169C23.8122 169.236 24.2414 169.331 24.7785 169.446C25.8537 169.676 27.357 169.983 29.0664 170.289C32.5279 170.91 36.6761 171.5 39.8244 171.5C42.9726 171.5 47.1208 170.91 50.5824 170.289C52.2917 169.983 53.795 169.676 54.8702 169.446C55.4074 169.331 55.8365 169.236 56.1298 169.169L56.4639 169.093L56.5478 169.073L56.5729 169.067ZM56.2215 141.832C63.2105 137.508 73.9384 151.019 51.4606 159C36.1242 141.229 52.4065 134.711 56.2215 141.832Z" fill="#F4ABBA" fill-opacity="0.6"/>
<path d="M174 119C196.091 119 214 136.909 214 159C214 181.091 196.091 199 174 199C151.909 199 134 181.091 134 159C134 136.909 151.909 119 174 119ZM169 166.5C169 162.358 166.761 159 164 159C161.239 159 159 162.358 159 166.5C159 170.642 161.239 174 164 174C166.761 174 169 170.642 169 166.5ZM155.424 151.164C156.619 151.855 158.148 151.447 158.84 150.252C161.869 145.015 167.526 141.5 174 141.5C180.474 141.5 186.131 145.015 189.16 150.252C189.852 151.447 191.381 151.855 192.576 151.164C193.771 150.473 194.18 148.943 193.488 147.748C189.602 141.029 182.331 136.5 174 136.5C165.669 136.5 158.398 141.029 154.512 147.748C153.82 148.943 154.229 150.473 155.424 151.164ZM184 159C181.239 159 179 162.358 179 166.5C179 170.642 181.239 174 184 174C186.761 174 189 170.642 189 166.5C189 162.358 186.761 159 184 159Z" fill="#F4ABBA" fill-opacity="0.6"/>
</svg>
