<svg width="60" height="60" viewBox="0 0 60 60" fill="none" xmlns="http://www.w3.org/2000/svg">
<g clip-path="url(#clip0_36_15)">
<path d="M0.21241 7.60835C0.21241 7.60835 -0.33136 7.22116 0.321164 6.70415L1.84145 5.36127C1.84145 5.36127 2.27647 4.90916 2.73641 5.30307L16.7657 15.7955V20.8268C16.7657 20.8268 16.7589 21.6168 15.7325 21.5296L0.21241 7.60835Z" fill="#F4ABBA" fill-opacity="0.6"/>
<path d="M3.82834 10.8516L0.212264 14.099C0.212264 14.099 -0.159312 14.3721 0.212264 14.86L1.89115 16.3685C1.89115 16.3685 2.28992 16.7915 2.87901 16.3103L6.71258 13.4388L3.82834 10.8516Z" fill="#F4ABBA" fill-opacity="0.6"/>
<path d="M10.1767 10.8783L16.8084 5.876L16.7653 0.871478C16.7653 0.871478 16.4821 -0.220743 15.5373 0.347749L6.7124 8.28203L10.1767 10.8783Z" fill="#F4ABBA" fill-opacity="0.6"/>
<path d="M15.7321 21.5364C16.1173 21.9257 16.5841 21.7982 16.5841 21.7982L21.7523 19.2825C22.414 18.8371 22.3211 18.2843 22.3211 18.2843V3.26185C22.3211 2.60159 21.6368 2.3733 21.6368 2.3733L17.1573 0.240343C16.1785 -0.357244 15.5374 0.347771 15.5374 0.347771C15.5374 0.347771 16.362 -0.238622 16.7654 0.8715V20.7351C16.7654 20.8716 16.7359 21.0059 16.677 21.1267C16.5591 21.3617 16.3031 21.5811 15.6891 21.4894L15.7321 21.5364Z" fill="#F4ABBA" fill-opacity="0.6"/>
</g>
<path d="M6.27898 45C6.27898 45.3757 5.96573 45.6818 5.58131 45.6818C5.19689 45.6818 4.88364 45.3757 4.88364 45C4.88364 44.6243 5.19689 44.3182 5.58131 44.3182C5.96573 44.3182 6.27898 44.6243 6.27898 45ZM20.9301 46.3637C20.9301 50.5296 16.4281 54.0675 13.5369 55.9091C12.6404 56.4798 11.8988 56.8889 11.4941 57.1023C11.2855 57.2121 11.0392 57.2121 10.8306 57.1023C10.426 56.8889 9.68364 56.4805 8.78712 55.9091C5.89666 54.0668 1.39526 50.5296 1.39526 46.3637C1.39526 43.3514 3.89433 40.9091 6.97666 40.9091C8.64619 40.9091 10.1399 41.6291 11.1627 42.7643C12.1855 41.6291 13.6792 40.9091 15.3488 40.9091C18.4311 40.9091 20.9301 43.3514 20.9301 46.3637ZM6.97666 45C6.97666 44.2466 6.35224 43.6364 5.58131 43.6364C4.81038 43.6364 4.18596 44.2466 4.18596 45C4.18596 45.7534 4.81038 46.3637 5.58131 46.3637C6.35224 46.3637 6.97666 45.7528 6.97666 45Z" fill="#F4ABBA" fill-opacity="0.6"/>
<g clip-path="url(#clip1_36_15)">
<path d="M52.5353 4.09088C52.4258 4.09088 52.3255 4.17664 52.3255 4.29596V8.0433L51.4561 7.54791C51.4017 7.51655 51.3404 7.5013 51.279 7.5013C51.2176 7.5013 51.1562 7.51655 51.1018 7.54791L49.0129 8.73843C48.9041 8.79979 48.8371 8.91335 48.8371 9.03539V11.4191C48.8371 11.5418 48.9041 11.6547 49.0129 11.7161L51.1018 12.9066C51.1562 12.9379 51.2176 12.9532 51.279 12.9532C51.3404 12.9532 51.4017 12.9379 51.4561 12.9066L53.545 11.7161C53.6539 11.6547 53.7208 11.5411 53.7208 11.4191V10.2272V9.03539V4.92984C53.7208 4.80847 53.6545 4.6969 53.5478 4.63554L52.6389 4.11885C52.6047 4.09976 52.5702 4.09088 52.5353 4.09088ZM45.6976 7.5013C45.6364 7.5013 45.5752 7.51689 45.5204 7.54791L43.4315 8.73843C43.3227 8.79979 43.2557 8.91335 43.2557 9.03539V11.4191C43.2557 11.5418 43.3227 11.6547 43.4315 11.7161L45.5204 12.9066C45.63 12.9686 45.7652 12.9686 45.8747 12.9066L47.9637 11.7161C48.0725 11.6547 48.1394 11.5411 48.1394 11.4191V9.03539C48.1394 8.91267 48.0725 8.79979 47.9637 8.73843L45.8747 7.54791C45.8199 7.51689 45.7588 7.5013 45.6976 7.5013ZM56.8604 7.5013C56.799 7.5013 56.7376 7.51655 56.6832 7.54791L54.5943 8.73843C54.4854 8.79979 54.4185 8.91335 54.4185 9.03539V11.4191C54.4185 11.5418 54.4854 11.6547 54.5943 11.7161L56.6205 12.9132C56.7294 12.978 56.866 12.9786 56.9762 12.9159L57.9723 12.3499C58.0755 12.292 58.0762 12.1456 57.9723 12.0863L55.8139 10.8438V9.62L56.8604 9.02474L57.9069 9.62V10.4723C57.9069 10.5861 58.0048 10.6037 58.0704 10.5655C58.3341 10.4141 59.1292 9.96357 59.1292 9.96357C59.2359 9.90289 59.3022 9.79064 59.3022 9.66927V9.03539C59.3022 8.91267 59.2353 8.79979 59.1264 8.73843L57.0375 7.54791C56.9824 7.51655 56.9218 7.5013 56.8604 7.5013ZM40.1162 7.50264C40.0548 7.50264 39.9935 7.51788 39.939 7.54924L37.8501 8.73843C37.7413 8.80048 37.6743 8.914 37.6743 9.03673V12.0796C37.6743 12.2282 37.8388 12.3204 37.97 12.2461L38.8966 11.7187C39.0034 11.6574 39.0697 11.5458 39.0697 11.4244V9.62266L40.1162 9.02607L41.1627 9.62266V11.4244C41.1627 11.5458 41.229 11.6574 41.3357 11.7187L42.2623 12.2461C42.3935 12.3211 42.558 12.2282 42.558 12.0796V9.03673C42.558 8.914 42.4911 8.80048 42.3823 8.73843L40.2933 7.54924C40.2389 7.51788 40.1776 7.50264 40.1162 7.50264ZM51.279 9.02474L52.3255 9.62133V10.2272V10.8332L51.279 11.4297L50.2325 10.8332V9.62133L51.279 9.02474ZM56.8604 9.54809L56.2622 9.889V10.5695L56.8604 10.9091L57.4586 10.5695V9.889L56.8604 9.54809ZM48.4229 12.2714C48.3511 12.2714 48.2785 12.2885 48.2157 12.3233L46.2535 13.4313C46.1245 13.5008 46.0464 13.6377 46.0464 13.7802V15.9934C46.0464 16.1359 46.1279 16.27 46.2535 16.3423L46.77 16.6299C47.0176 16.7493 47.1087 16.7498 47.221 16.7498C47.5908 16.7498 47.8015 16.5337 47.8015 16.1519V13.9653C47.8015 13.9319 47.775 13.908 47.7443 13.908H47.4963C47.4621 13.908 47.4377 13.9353 47.4377 13.9653V16.1519C47.4377 16.3176 47.2585 16.4875 46.9662 16.345L46.4293 16.0427C46.4119 16.0324 46.3993 16.0118 46.3993 15.9921V13.7788C46.3993 13.7591 46.4091 13.7358 46.4293 13.7256L48.3915 12.6203C48.4125 12.61 48.4361 12.61 48.4528 12.6203L50.4164 13.7256C50.4366 13.7358 50.4464 13.7556 50.4464 13.7788V15.9921C50.4464 16.0153 50.4332 16.0351 50.4164 16.0453L48.4528 17.1546C48.4354 17.1649 48.4083 17.1649 48.3915 17.1546L47.8901 16.863C47.8768 16.8562 47.8556 16.8522 47.8424 16.859C47.7035 16.9388 47.6758 16.9492 47.5467 16.9922C47.5125 17.0024 47.466 17.0229 47.5644 17.0761L48.2157 17.4543C48.2806 17.4877 48.3517 17.5075 48.4229 17.5075C48.4975 17.5075 48.5701 17.4877 48.6273 17.4516L50.5895 16.3423C50.7185 16.2728 50.7966 16.1359 50.7966 15.9934V13.7802C50.7966 13.6377 50.715 13.5042 50.5895 13.4313L48.6273 12.3233C48.5662 12.2885 48.4946 12.2714 48.4229 12.2714ZM51.4834 13.2928C51.2831 13.2928 51.1073 13.451 51.1073 13.6603C51.1073 13.8628 51.2762 14.0292 51.4834 14.0292C51.6906 14.0292 51.8595 13.8628 51.8595 13.6603C51.8595 13.451 51.6871 13.2894 51.4834 13.2928ZM51.4793 13.3514C51.6565 13.3514 51.7995 13.4878 51.7995 13.6603C51.7995 13.8294 51.6558 13.9692 51.4793 13.9733C51.3056 13.9733 51.1645 13.8328 51.1645 13.6603C51.1645 13.4878 51.3063 13.3514 51.4793 13.3514ZM51.3416 13.4512V13.8654H51.422V13.7003H51.497C51.5277 13.7003 51.535 13.713 51.542 13.7362C51.542 13.7396 51.5548 13.8469 51.5583 13.8667H51.6455C51.6358 13.8469 51.6286 13.7903 51.6251 13.7562C51.6153 13.703 51.6121 13.6664 51.5542 13.663C51.5849 13.6527 51.636 13.6368 51.636 13.5604C51.636 13.4507 51.5384 13.4512 51.4875 13.4512H51.3416ZM51.422 13.5178H51.4902C51.5111 13.5178 51.5515 13.5172 51.5515 13.5737C51.5515 13.5969 51.5412 13.6344 51.4861 13.6337H51.422V13.5178ZM48.9488 13.8561C48.3886 13.8561 48.0563 14.0894 48.0563 14.474C48.0563 14.8953 48.3892 15.008 48.9257 15.0612C49.5675 15.124 49.6179 15.2142 49.6179 15.3369C49.6179 15.5523 49.4409 15.6418 49.0265 15.6418C48.5067 15.6418 48.3924 15.5159 48.3547 15.2636C48.3512 15.2371 48.3268 15.217 48.2961 15.217H48.0413C48.0106 15.217 47.9841 15.2409 47.9841 15.2743C47.9841 15.5961 48.1636 15.9814 49.0224 15.9814C49.6524 15.9807 50.009 15.7422 50.009 15.3236C50.009 14.909 49.7234 14.7988 49.1192 14.719C48.508 14.6392 48.4474 14.5991 48.4474 14.4593C48.4474 14.3434 48.4974 14.1916 48.9488 14.1916C49.3528 14.1916 49.5034 14.278 49.5648 14.5432C49.5717 14.5698 49.5907 14.5858 49.6179 14.5858H49.8727C49.8895 14.5858 49.9038 14.5794 49.9136 14.5698C49.9241 14.5569 49.9307 14.5436 49.9272 14.5272C49.8868 14.069 49.5774 13.8561 48.9488 13.8561Z" fill="#F4ABBA" fill-opacity="0.6"/>
</g>
<path d="M48.8371 54.5448V49.7509C51.1778 49.5757 53.0232 47.6734 53.0232 45.3416V42.5884C53.0232 41.5391 51.8608 40.8825 50.9308 41.4075L48.4883 42.7841L46.0457 41.4068C45.1157 40.8825 43.9534 41.5391 43.9534 42.5884V45.3409C43.9534 47.6727 45.7988 49.5757 48.1394 49.7502V54.5441C46.9904 51.853 44.5241 49.8334 41.5269 49.2573C40.599 49.0786 39.7548 49.8846 39.9083 50.7968C40.5927 54.8761 43.7274 57.9546 48.1394 57.9546H48.8371C53.2492 57.9546 56.3839 54.8761 57.069 50.7975C57.2225 49.8852 56.3783 49.0793 55.4504 49.258C52.4525 49.8341 49.9862 51.8536 48.8371 54.5448Z" fill="#F4ABBA" fill-opacity="0.6"/>
<defs>
<clipPath id="clip0_36_15">
<rect width="22.3256" height="21.8182" fill="white"/>
</clipPath>
<clipPath id="clip1_36_15">
<rect width="22.3256" height="21.8182" fill="white" transform="translate(37.6743)"/>
</clipPath>
</defs>
</svg>
