<svg width="60" height="60" viewBox="0 0 60 60" fill="none" xmlns="http://www.w3.org/2000/svg">
<path d="M58.0164 7.36894C56.9199 7.36894 56.0328 8.10695 56.0328 9.01785V14.8626C56.0328 15.3002 56.2418 15.72 56.6138 16.0294C56.9858 16.3389 57.4903 16.5128 58.0164 16.5128C58.5425 16.5128 59.0471 16.3389 59.4191 16.0294C59.7911 15.72 60.0001 15.3002 60.0001 14.8626V9.01785C60.0001 8.10695 59.1129 7.36894 58.0164 7.36894ZM38.3384 7.36894C37.2419 7.36894 36.3547 8.10695 36.3547 9.01785V14.8626C36.3547 15.3002 36.5637 15.72 36.9357 16.0294C37.3077 16.3389 37.8123 16.5128 38.3384 16.5128C38.8645 16.5128 39.369 16.3389 39.741 16.0294C40.113 15.72 40.322 15.3002 40.322 14.8626V9.01785C40.3222 8.80115 40.271 8.58655 40.1714 8.38634C40.0717 8.18612 39.9256 8.00422 39.7414 7.85106C39.5571 7.69789 39.3383 7.57647 39.0976 7.49374C38.8568 7.41101 38.5988 7.3686 38.3384 7.36894ZM52.1245 2.45447L53.3156 0.663632C53.3504 0.612648 53.3727 0.556416 53.3812 0.498203C53.3896 0.439991 53.3841 0.380959 53.3649 0.324538C53.3457 0.268116 53.3132 0.21543 53.2694 0.169541C53.2255 0.123651 53.1711 0.0854736 53.1093 0.0572259C53.0477 0.0283349 52.9799 0.00991665 52.9096 0.00304187C52.8394 -0.00383292 52.7682 0.000972806 52.7003 0.0171798C52.6323 0.0333868 52.5689 0.0606718 52.5137 0.0974486C52.4585 0.134225 52.4127 0.17976 52.3788 0.231406L51.1552 2.06353C50.2432 1.76032 49.2382 1.58872 48.1774 1.58872C47.1166 1.58872 46.1116 1.75903 45.1996 2.06224L43.976 0.232697C43.9421 0.18105 43.8963 0.135515 43.8411 0.0987387C43.7859 0.061962 43.7225 0.0346772 43.6545 0.0184702C43.5865 0.00226325 43.5154 -0.00254248 43.4452 0.00433231C43.3749 0.0112071 43.3071 0.029625 43.2455 0.058516C43.184 0.0870171 43.1299 0.125324 43.0863 0.171244C43.0426 0.217164 43.0103 0.269795 42.9911 0.326123C42.972 0.382451 42.9664 0.44137 42.9746 0.499506C42.9828 0.557642 43.0048 0.613854 43.0392 0.664922L44.2303 2.45576C42.0854 3.47245 40.6523 5.29038 40.6523 7.36894C40.6523 7.38313 40.6523 7.39603 40.6554 7.41281C40.6523 7.42055 40.6523 7.42958 40.6523 7.43732V7.43861H55.7009V7.36894C55.7025 5.29038 54.2694 3.47375 52.1245 2.45447ZM44.7033 4.99363C44.6328 4.99321 44.563 4.98123 44.498 4.95837C44.433 4.93551 44.374 4.90222 44.3245 4.86041C44.2244 4.77596 44.1688 4.66191 44.1698 4.54334C44.1708 4.42477 44.2285 4.3114 44.33 4.22817C44.4315 4.14493 44.5686 4.09865 44.7111 4.09951C44.8536 4.10036 44.9899 4.14828 45.09 4.23273C45.19 4.31717 45.2456 4.43123 45.2446 4.54979C45.2436 4.66836 45.186 4.78174 45.0845 4.86497C44.983 4.94821 44.8459 4.99449 44.7033 4.99363ZM51.6515 4.99363C51.5162 4.98507 51.3898 4.93432 51.2976 4.85155C51.2054 4.76877 51.1541 4.66007 51.1541 4.54721C51.1541 4.43435 51.2054 4.32566 51.2976 4.24288C51.3898 4.16011 51.5162 4.10936 51.6515 4.1008C51.7938 4.1008 51.9303 4.14783 52.0309 4.23155C52.1315 4.31527 52.1881 4.42882 52.1881 4.54721C52.1881 4.66561 52.1315 4.77916 52.0309 4.86288C51.9303 4.9466 51.7938 4.99363 51.6515 4.99363ZM40.6523 16.9295C40.6523 17.763 41.4666 18.4404 42.4731 18.4404H43.382V21.5382C43.382 21.9759 43.5909 22.3956 43.9629 22.7051C44.3349 23.0145 44.8395 23.1884 45.3656 23.1884C45.8917 23.1884 46.3962 23.0145 46.7682 22.7051C47.1402 22.3956 47.3492 21.9759 47.3492 21.5382V18.4404H49.0025V21.5382C49.0025 22.4504 49.8896 23.1871 50.983 23.1871C52.0826 23.1871 52.9697 22.4504 52.9697 21.5382V18.4404H53.8786C54.8836 18.4404 55.6994 17.7643 55.6994 16.9295V7.77923H40.6523V16.9295Z" fill="#F4ABBA" fill-opacity="0.6"/>
<path d="M1.97046 3.86473C1.97046 1.7303 6.38145 0 11.8227 0C17.2639 0 21.6749 1.7303 21.6749 3.86473V5.7971C21.6749 7.93154 17.2639 9.66183 11.8227 9.66183C6.38145 9.66183 1.97046 7.93154 1.97046 5.7971V3.86473Z" fill="#F4ABBA" fill-opacity="0.66"/>
<path d="M1.97046 9.18023V13.5266C1.97046 15.661 6.38145 17.3913 11.8227 17.3913C17.2639 17.3913 21.6749 15.661 21.6749 13.5266V9.18023C21.0399 9.6423 20.2987 10.019 19.521 10.324C17.4524 11.1355 14.7298 11.5942 11.8227 11.5942C8.91556 11.5942 6.19291 11.1355 4.1243 10.324C3.3466 10.019 2.60548 9.6423 1.97046 9.18023Z" fill="#F4ABBA" fill-opacity="0.66"/>
<path d="M21.6749 16.9097C21.0399 17.3718 20.2987 17.7484 19.521 18.0535C17.4524 18.865 14.7298 19.3237 11.8227 19.3237C8.91556 19.3237 6.19291 18.865 4.1243 18.0535C3.3466 17.7484 2.60548 17.3718 1.97046 16.9097V19.3237C1.97046 21.4581 6.38145 23.1884 11.8227 23.1884C17.2639 23.1884 21.6749 21.4581 21.6749 19.3237V16.9097Z" fill="#F4ABBA" fill-opacity="0.66"/>
<path d="M15.4847 39.1986C15.6047 38.8161 15.3858 38.4106 14.9957 38.2929C14.6057 38.1752 14.1922 38.3899 14.0722 38.7724L8.16087 57.613C8.04085 57.9955 8.25976 58.401 8.6498 58.5187C9.03985 58.6364 9.45334 58.4217 9.57335 58.0392L15.4847 39.1986Z" fill="#F4ABBA" fill-opacity="0.66"/>
<path d="M7.17284 42.8209C7.4614 43.1039 7.4614 43.5627 7.17284 43.8457L2.52292 48.4058L7.17284 52.9659C7.4614 53.2488 7.4614 53.7077 7.17284 53.9906C6.88427 54.2736 6.41642 54.2736 6.12785 53.9906L0.955437 48.9182C0.666872 48.6352 0.666872 48.1764 0.955437 47.8934L6.12785 42.8209C6.41642 42.5379 6.88427 42.5379 7.17284 42.8209Z" fill="#F4ABBA" fill-opacity="0.66"/>
<path d="M16.4727 42.8209C16.1841 43.1039 16.1841 43.5627 16.4727 43.8457L21.1226 48.4058L16.4727 52.9659C16.1841 53.2488 16.1841 53.7077 16.4727 53.9906C16.7612 54.2736 17.2291 54.2736 17.5177 53.9906L22.6901 48.9182C22.9786 48.6352 22.9786 48.1764 22.6901 47.8934L17.5177 42.8209C17.2291 42.5379 16.7612 42.5379 16.4727 42.8209Z" fill="#F4ABBA" fill-opacity="0.66"/>
<path fill-rule="evenodd" clip-rule="evenodd" d="M46.4405 42.8085C47.3212 45.9117 45.91 48.0164 42.911 48.775C41.885 49.0346 40.86 49.0471 39.9279 48.8539C39.8572 48.8393 41.2577 52.8791 42.1779 55.5334C42.4281 56.2551 42.6427 56.8743 42.7827 57.2817C42.9188 57.6781 42.691 58.1038 42.2722 58.2356L41.3953 58.5116C40.9692 58.6457 40.5094 58.4238 40.375 58.0191L36.6279 46.9415C35.5999 43.8455 37.6066 40.6975 40.4168 39.9866C43.4157 39.228 45.4454 39.9867 46.4405 42.8085ZM45.1587 46.0276C45.7947 45.8653 45.9879 44.5878 45.5903 43.1743C45.1926 41.7608 44.3546 40.7465 43.7186 40.9088C43.0826 41.0711 42.8894 42.3486 43.2871 43.7621C43.6847 45.1756 44.5227 46.1899 45.1587 46.0276Z" fill="#F4ABBA" fill-opacity="0.66"/>
<path fill-rule="evenodd" clip-rule="evenodd" d="M49.9143 42.8085C49.0335 45.9117 50.4448 48.0164 53.4438 48.775C54.4698 49.0346 55.4948 49.0471 56.4268 48.8539C56.4976 48.8393 55.0971 52.8791 54.1769 55.5334C53.9267 56.2551 53.7121 56.8743 53.5721 57.2817C53.436 57.6781 53.6638 58.1038 54.0825 58.2356L54.9595 58.5116C55.3856 58.6457 55.8454 58.4238 55.9798 58.0191L59.7269 46.9415C60.7549 43.8455 58.7482 40.6975 55.938 39.9866C52.9391 39.228 50.9094 39.9867 49.9143 42.8085ZM51.1961 46.0276C50.5601 45.8653 50.3669 44.5878 50.7645 43.1743C51.1622 41.7608 52.0002 40.7465 52.6362 40.9088C53.2722 41.0711 53.4654 42.3486 53.0677 43.7621C52.6701 45.1756 51.8321 46.1899 51.1961 46.0276Z" fill="#F4ABBA" fill-opacity="0.66"/>
</svg>
