<svg width="60" height="60" viewBox="0 0 60 60" fill="none" xmlns="http://www.w3.org/2000/svg">
<g clip-path="url(#clip0_36_13)">
<path d="M1.22642 24L11.8868 12.5L22.6415 24H1.22642ZM0 0H11.3208L0 12.5V0ZM12.6415 0L0 14V24L11.3208 12L22.6415 0H12.6415Z" fill="#F4ABBA" fill-opacity="0.6"/>
</g>
<path d="M16.2075 45.518C15.016 39.958 12.2056 38.131 11.9038 37.432C11.5717 36.939 11.2123 36 11.2123 36C11.2104 36.019 11.2085 36.031 11.2075 36.049V36.062H11.2066C11.2047 36.077 11.2038 36.087 11.2028 36.101V36.116H11.2009C11.2009 36.126 11.199 36.134 11.199 36.142V36.168H11.1962C11.1953 36.176 11.1953 36.186 11.1934 36.193V36.214H11.1915C11.1915 36.221 11.1915 36.229 11.1896 36.235V36.255H11.1877C11.1877 36.265 11.1868 36.277 11.1858 36.287V36.289C11.183 36.306 11.1802 36.323 11.1773 36.339V36.347H11.1755C11.1745 36.351 11.1726 36.355 11.1726 36.359V36.376H11.1698V36.398H11.1651V36.416H11.1604V36.437H11.1566V36.456H11.1528V36.473H11.1472V36.487H11.1434V36.505H11.1396V36.519H11.1349V36.532H11.1321V36.547H11.1283C11.1273 36.548 11.1273 36.55 11.1273 36.551V36.561H11.1245C11.1236 36.563 11.1236 36.565 11.1236 36.567V36.573H11.1217C11.1207 36.576 11.1198 36.581 11.1198 36.583C11.117 36.59 11.1132 36.597 11.1104 36.604V36.606C11.1085 36.608 11.1066 36.611 11.1056 36.613V36.621H11.1019V36.629H11.0972V36.637H11.0943V36.647H11.0887V36.661H11.0849V36.665H11.0811V36.673H11.0773V36.684H11.0736V36.692H11.0679V36.703H11.0641V36.711H11.0594V36.719H11.0566V36.729H11.0519V36.737H11.0481V36.743H11.0443V36.751H11.0387V36.76H11.0349V36.766H11.0302V36.774H11.0264V36.785H11.0217V36.789H11.0189V36.797H11.0132V36.801H11.0094V36.811H11.0056V36.815H11.0019V36.823H10.9972V36.829H10.9943L10.9924 36.833V36.837H10.9906C10.9896 36.839 10.9887 36.839 10.9887 36.841V36.842H10.9877C10.9868 36.845 10.9858 36.847 10.9839 36.849V36.852H10.983C10.9783 36.858 10.9755 36.864 10.9717 36.87V36.871C10.9698 36.873 10.9651 36.877 10.9632 36.881V36.883H10.9622C10.9613 36.884 10.9594 36.885 10.9594 36.886V36.889H10.9575L10.9547 36.892V36.893H10.9538C10.9538 36.894 10.9519 36.895 10.9509 36.897V36.901H10.9481L10.9462 36.903V36.905H10.9443C10.9443 36.907 10.9424 36.907 10.9424 36.908V36.911H10.9387C10.9387 36.912 10.9377 36.913 10.9368 36.914V36.92H10.9339V36.924H10.9302V36.93H10.9264V36.938H10.9217V36.93H10.917V36.934H10.9132V36.94H10.9085V36.948H10.9038V36.952H10.9V36.958H10.8962V36.962H10.8924V36.97H10.8868V36.974H10.883V36.98H10.8783V36.984H10.8745V36.989H10.8698V36.999H10.8679V37.003H10.8622V37.008H10.8585V37.01H10.8547V37.014H10.85V37.024H10.8462V37.028H10.8415V37.032H10.8377V37.038H10.833V37.042H10.8283V37.046H10.8245V37.05H10.8207V37.06H10.817V37.065H10.8113V37.069H10.8075V37.073H10.8028V37.079H10.799V37.083H10.7943V37.09H10.7906V37.094H10.7849V37.1H10.783V37.104H10.7792V37.108H10.7745V37.112H10.7707V37.118H10.766V37.122H10.7632C10.7623 37.123 10.7622 37.124 10.7622 37.124V37.126H10.7604L10.7566 37.13C10.7566 37.13 10.7547 37.132 10.7528 37.133V37.139H10.749V37.144H10.7453V37.148H10.7415V37.152H10.7387L10.7358 37.155V37.158H10.7339L10.7321 37.16V37.163H10.7302C10.7255 37.169 10.7236 37.173 10.717 37.179C10.7151 37.181 10.7094 37.186 10.7056 37.189C10.6943 37.197 10.6802 37.21 10.6689 37.221C10.6613 37.226 10.6538 37.233 10.6481 37.238V37.239H10.6472C10.6321 37.252 10.6179 37.264 10.6009 37.278V37.279C10.5783 37.299 10.5566 37.318 10.5311 37.341V37.34H10.5292C10.4755 37.387 10.4189 37.44 10.3538 37.499V37.5H10.3528C10.1934 37.648 10.0038 37.838 9.79149 38.068L9.77734 38.083L9.77357 38.087C8.49055 39.494 6.46885 42.426 6.25565 47.164C6.23678 47.556 6.24055 47.937 6.26131 48.308V48.317C6.36414 50.184 6.91697 51.778 7.60848 53.073V53.074C7.88395 53.59 8.18112 54.059 8.48206 54.479V54.48C9.52168 55.935 10.583 56.797 10.8538 57.006C11.2698 58.029 11.2311 59.785 11.2311 59.785L11.8387 60C11.8387 60 11.7151 58.299 11.8887 57.478C11.9424 57.221 12.0698 57.002 12.2179 56.816C12.3179 56.741 12.6141 56.515 12.9698 56.171C12.9868 56.152 12.9962 56.135 13.0113 56.117C14.4462 54.699 17.1264 51.207 16.2075 45.518V45.518Z" fill="#F4ABBA" fill-opacity="0.6"/>
<g clip-path="url(#clip1_36_13)">
<path d="M48.6792 36.297C42.4251 36.297 37.3584 41.6723 37.3584 48.297C37.3584 53.6018 40.6018 58.098 45.0968 59.6843C45.665 59.7975 45.8702 59.4263 45.8702 59.1053C45.8702 58.8203 45.8638 58.0665 45.8596 57.066C42.7089 57.789 42.0452 55.4528 42.0452 55.4528C41.5294 54.0698 40.785 53.6985 40.785 53.6985C39.7605 52.9568 40.8664 52.9725 40.8664 52.9725C42.0013 53.0543 42.5985 54.2063 42.5985 54.2063C43.6082 56.0423 45.2475 55.5113 45.8964 55.2023C45.9954 54.429 46.2905 53.8973 46.6117 53.601C44.0985 53.3003 41.4558 52.269 41.4558 47.6708C41.4558 46.3575 41.8945 45.288 42.6197 44.448C42.4945 44.1473 42.111 42.9248 42.7195 41.2718C42.7195 41.2718 43.6669 40.9515 45.8327 42.5025C46.7391 42.2363 47.7013 42.1035 48.6629 42.0968C49.6251 42.1035 50.5867 42.237 51.4931 42.5025C53.6461 40.9515 54.5928 41.2718 54.5928 41.2718C55.2006 42.9248 54.8171 44.1465 54.7067 44.448C55.4249 45.288 55.8636 46.3583 55.8636 47.6708C55.8636 52.2795 53.2174 53.2958 50.7013 53.589C51.0947 53.9483 51.4634 54.687 51.4634 55.8083C51.4634 57.4133 51.4492 58.7063 51.4492 59.097C51.4492 59.409 51.6473 59.784 52.2303 59.6633C56.7586 58.0935 59.9985 53.5935 59.9985 48.2963C59.9985 41.6715 54.9317 36.2963 48.6777 36.2963L48.6792 36.297Z" fill="#F4ABBA" fill-opacity="0.6"/>
</g>
<g clip-path="url(#clip2_36_13)">
<path d="M48.6792 12C48.6792 10.9391 49.0768 9.92172 49.7845 9.17157C50.4922 8.42143 51.452 8 52.4528 8C53.4537 8 54.4135 8.42143 55.1212 9.17157C55.8288 9.92172 56.2264 10.9391 56.2264 12C56.2264 13.0609 55.8288 14.0783 55.1212 14.8284C54.4135 15.5786 53.4537 16 52.4528 16C51.452 16 50.4922 15.5786 49.7845 14.8284C49.0768 14.0783 48.6792 13.0609 48.6792 12ZM41.1321 20C41.1321 18.9391 41.5297 17.9217 42.2373 17.1716C42.945 16.4214 43.9048 16 44.9057 16H48.6792V20C48.6792 21.0609 48.2817 22.0783 47.574 22.8284C46.8663 23.5786 45.9065 24 44.9057 24C43.9048 24 42.945 23.5786 42.2373 22.8284C41.5297 22.0783 41.1321 21.0609 41.1321 20ZM48.6792 0V8H52.4528C53.4537 8 54.4135 7.57857 55.1212 6.82843C55.8288 6.07828 56.2264 5.06087 56.2264 4C56.2264 2.93913 55.8288 1.92172 55.1212 1.17157C54.4135 0.421427 53.4537 0 52.4528 0L48.6792 0ZM41.1321 4C41.1321 5.06087 41.5297 6.07828 42.2373 6.82843C42.945 7.57857 43.9048 8 44.9057 8H48.6792V0H44.9057C43.9048 0 42.945 0.421427 42.2373 1.17157C41.5297 1.92172 41.1321 2.93913 41.1321 4V4ZM41.1321 12C41.1321 13.0609 41.5297 14.0783 42.2373 14.8284C42.945 15.5786 43.9048 16 44.9057 16H48.6792V8H44.9057C43.9048 8 42.945 8.42143 42.2373 9.17157C41.5297 9.92172 41.1321 10.9391 41.1321 12V12Z" fill="#F4ABBA" fill-opacity="0.6"/>
</g>
<defs>
<clipPath id="clip0_36_13">
<rect width="22.6415" height="24" fill="white"/>
</clipPath>
<clipPath id="clip1_36_13">
<rect width="22.6415" height="24" fill="white" transform="translate(37.3584 36)"/>
</clipPath>
<clipPath id="clip2_36_13">
<rect width="22.6415" height="24" fill="white" transform="translate(37.3584)"/>
</clipPath>
</defs>
</svg>
