<svg width="60" height="60" viewBox="0 0 60 60" fill="none" xmlns="http://www.w3.org/2000/svg">
<path d="M0 4.34783C0 2.74701 1.10094 1.44928 2.45902 1.44928H17.2131C18.5712 1.44928 19.6721 2.74701 19.6721 4.34783V18.8406C19.6721 20.4414 18.5712 21.7391 17.2131 21.7391H2.45902C1.10094 21.7391 0 20.4414 0 18.8406V4.34783ZM11.6803 12.3188H7.9918C7.65228 12.3188 7.37705 12.6433 7.37705 13.0435C7.37705 13.4437 7.65228 13.7681 7.9918 13.7681H11.6803C12.0198 13.7681 12.2951 13.4437 12.2951 13.0435C12.2951 12.6433 12.0198 12.3188 11.6803 12.3188ZM3.86858 11.8064C3.62851 12.0894 3.62851 12.5483 3.86858 12.8312C4.10866 13.1142 4.4979 13.1142 4.73798 12.8312L7.19699 9.93269C7.43707 9.6497 7.43707 9.19089 7.19699 8.9079L4.73798 6.00935C4.4979 5.72636 4.10866 5.72636 3.86858 6.00935C3.62851 6.29234 3.62851 6.75115 3.86858 7.03414L5.8929 9.42029L3.86858 11.8064Z" fill="#F4ABBA" fill-opacity="0.6"/>
<path d="M41.5574 0L40.3279 1.44928L43.0339 5.91484C43.2647 6.2957 43.6373 6.52174 44.0344 6.52174H44.1219C44.448 6.52174 44.7607 6.67443 44.9913 6.94622L48.2802 10.823L45.0627 14.6702C44.731 14.5547 44.3798 14.4928 44.0164 14.4928C41.9793 14.4928 40.3279 16.4393 40.3279 18.8406C40.3279 21.2418 41.9793 23.1884 44.0164 23.1884C46.0535 23.1884 47.7049 21.2418 47.7049 18.8406C47.7049 18.4122 47.6524 17.9983 47.5544 17.6073L50.8182 13.8147L52.0082 15.2174L51.6337 16.5416C51.4865 17.0623 51.6015 17.6365 51.9308 18.0247L55.9514 22.7639C56.1914 23.0469 56.5061 23.1884 56.8208 23.1884C57.1354 23.1884 57.4501 23.0469 57.6902 22.7639L59.6399 20.4657C59.88 20.1827 60 19.8118 60 19.4409C60 19.07 59.88 18.6991 59.6399 18.4161L55.6193 13.6768C55.29 13.2887 54.8029 13.1531 54.3611 13.3267L53.2377 13.7681L52.0565 12.3757L55.3514 8.54691C55.6575 8.64392 55.9794 8.69565 56.3115 8.69565C58.3486 8.69565 60 6.74906 60 4.34783C60 3.95835 59.9566 3.58083 59.8751 3.22165L57.2427 6.32458L55.082 5.79708L54.6345 3.2502L57.2669 0.147268C56.9622 0.0512114 56.6419 0 56.3115 0C54.2744 0 52.623 1.94659 52.623 4.34783C52.623 4.73931 52.6669 5.11871 52.7492 5.47956L49.5009 9.36341L46.2208 5.49695C45.9902 5.22516 45.8607 4.85653 45.8607 4.47215V4.36901C45.8607 3.90097 45.6689 3.46173 45.3458 3.18969L41.5574 0ZM53.4178 15.4296C53.6579 15.1466 54.0471 15.1466 54.2872 15.4296L57.8702 19.6531C58.1103 19.9361 58.1103 20.3949 57.8702 20.6779C57.6301 20.9609 57.2409 20.9609 57.0008 20.6779L53.4178 16.4544C53.1777 16.1714 53.1777 15.7126 53.4178 15.4296ZM44.0164 15.942L44.5956 16.2928L45.2459 16.3303L45.5987 16.9754L46.146 17.3913L46.1779 18.1579L46.4754 18.8406L46.1779 19.5232L46.146 20.2898L45.5987 20.7057L45.2459 21.3508L44.5956 21.3884L44.0164 21.7391L43.4372 21.3884L42.7869 21.3508L42.4341 20.7057L41.8868 20.2898L41.8549 19.5232L41.5574 18.8406L41.8549 18.1579L41.8868 17.3913L42.4341 16.9754L42.7869 16.3303L43.4372 16.2928L44.0164 15.942Z" fill="#F4ABBA" fill-opacity="0.6"/>
<path fill-rule="evenodd" clip-rule="evenodd" d="M0 52.029C0 50.8284 0.825704 49.8551 1.84426 49.8551H3.07377C4.09233 49.8551 4.91803 50.8284 4.91803 52.029V53.4783C4.91803 54.6789 4.09233 55.6522 3.07377 55.6522H1.84426C0.825704 55.6522 0 54.6789 0 53.4783V52.029ZM1.84426 51.3044C1.50474 51.3044 1.22951 51.6288 1.22951 52.029V53.4783C1.22951 53.8785 1.50474 54.2029 1.84426 54.2029H3.07377C3.41329 54.2029 3.68852 53.8785 3.68852 53.4783V52.029C3.68852 51.6288 3.41329 51.3044 3.07377 51.3044H1.84426Z" fill="#F4ABBA" fill-opacity="0.6"/>
<path fill-rule="evenodd" clip-rule="evenodd" d="M14.7541 52.029C14.7541 50.8284 15.5798 49.8551 16.5984 49.8551H17.8279C18.8464 49.8551 19.6721 50.8284 19.6721 52.029V53.4783C19.6721 54.6789 18.8464 55.6522 17.8279 55.6522H16.5984C15.5798 55.6522 14.7541 54.6789 14.7541 53.4783V52.029ZM16.5984 51.3044C16.2588 51.3044 15.9836 51.6288 15.9836 52.029V53.4783C15.9836 53.8785 16.2588 54.2029 16.5984 54.2029H17.8279C18.1674 54.2029 18.4426 53.8785 18.4426 53.4783V52.029C18.4426 51.6288 18.1674 51.3044 17.8279 51.3044H16.5984Z" fill="#F4ABBA" fill-opacity="0.6"/>
<path fill-rule="evenodd" clip-rule="evenodd" d="M7.37705 43.3333C7.37705 42.1327 8.20275 41.1594 9.22131 41.1594H10.4508C11.4694 41.1594 12.2951 42.1327 12.2951 43.3333V44.7826C12.2951 45.9832 11.4694 46.9565 10.4508 46.9565H9.22131C8.20275 46.9565 7.37705 45.9832 7.37705 44.7826V43.3333ZM9.22131 42.6087C8.88179 42.6087 8.60656 42.9331 8.60656 43.3333V44.7826C8.60656 45.1828 8.88179 45.5072 9.22131 45.5072H10.4508C10.7903 45.5072 11.0656 45.1828 11.0656 44.7826V43.3333C11.0656 42.9331 10.7903 42.6087 10.4508 42.6087H9.22131Z" fill="#F4ABBA" fill-opacity="0.6"/>
<path d="M7.37705 43.3333H2.29453C2.08194 42.9001 1.6846 42.6087 1.22951 42.6087C0.55047 42.6087 0 43.2576 0 44.058C0 44.8584 0.55047 45.5072 1.22951 45.5072C1.6846 45.5072 2.08194 45.2158 2.29453 44.7826H5.57498C4.00873 45.9484 2.80995 47.7379 2.22971 49.8551H3.07377C3.22561 49.8551 3.37317 49.8767 3.51434 49.9175C4.19953 47.7966 5.63076 46.1096 7.43 45.3019C7.3954 45.1355 7.37705 44.9616 7.37705 44.7826V43.3333Z" fill="#F4ABBA" fill-opacity="0.6"/>
<path d="M12.2421 45.3019C12.2767 45.1355 12.2951 44.9616 12.2951 44.7826V43.3333H17.3776C17.5902 42.9001 17.9875 42.6087 18.4426 42.6087C19.1217 42.6087 19.6721 43.2576 19.6721 44.058C19.6721 44.8584 19.1217 45.5072 18.4426 45.5072C17.9875 45.5072 17.5902 45.2158 17.3776 44.7826H14.0972C15.6634 45.9484 16.8622 47.7379 17.4424 49.8551H16.5984C16.4465 49.8551 16.299 49.8767 16.1578 49.9175C15.4726 47.7966 14.0414 46.1096 12.2421 45.3019Z" fill="#F4ABBA" fill-opacity="0.6"/>
<path d="M59.0164 46.0869H41.3115C41.0506 46.0869 40.8004 46.2091 40.616 46.4265C40.4315 46.644 40.3279 46.9389 40.3279 47.2464C40.3279 49.2815 40.7824 51.2808 41.6457 53.0433C42.509 54.8058 43.7507 56.2694 45.2459 57.2869V58.8406C45.2459 59.1481 45.3495 59.443 45.534 59.6604C45.7185 59.8778 45.9687 60 46.2295 60H54.0984C54.3592 60 54.6094 59.8778 54.7939 59.6604C54.9783 59.443 55.082 59.1481 55.082 58.8406V57.2869C56.5772 56.2694 57.8189 54.8058 58.6822 53.0433C59.5455 51.2808 60 49.2815 60 47.2464C60 46.9389 59.8964 46.644 59.7119 46.4265C59.5275 46.2091 59.2773 46.0869 59.0164 46.0869ZM47.2131 44.9275V43.6869C47.2138 42.3226 46.7619 41.0119 45.9541 40.0348C45.7261 39.7631 45.546 39.4409 45.4245 39.0866C45.3029 38.7323 45.2422 38.3531 45.2459 37.971V36.8116H43.2787V37.971C43.2729 39.3434 43.7251 40.6635 44.5377 41.6464C44.9935 42.1893 45.2482 42.9231 45.2459 43.6869V44.9275H47.2131ZM51.1476 44.9275V43.6869C51.1482 42.3226 50.6964 41.0119 49.8885 40.0348C49.6605 39.7631 49.4805 39.4409 49.3589 39.0866C49.2373 38.7323 49.1766 38.3531 49.1803 37.971V36.8116H47.2131V37.971C47.2125 39.3354 47.6643 40.646 48.4721 41.6232C48.7002 41.8948 48.8802 42.2171 49.0018 42.5714C49.1234 42.9256 49.184 43.3048 49.1803 43.6869V44.9275H51.1476ZM55.082 44.9275V43.6869C55.0826 42.3226 54.6308 41.0119 53.823 40.0348C53.5949 39.7631 53.4149 39.4409 53.2933 39.0866C53.1717 38.7323 53.1111 38.3531 53.1148 37.971V36.8116H51.1476V37.971C51.1469 39.3354 51.5987 40.646 52.4066 41.6232C52.6346 41.8948 52.8146 42.2171 52.9362 42.5714C53.0578 42.9256 53.1185 43.3048 53.1148 43.6869V44.9275H55.082Z" fill="#F4ABBA" fill-opacity="0.6"/>
</svg>
