<?xml version="1.0" encoding="iso-8859-1"?>
<!-- Generator: Adobe Illustrator 19.0.0, SVG Export Plug-In . SVG Version: 6.00 Build 0)  -->
<svg version="1.1" id="Layer_1" xmlns="http://www.w3.org/2000/svg" xmlns:xlink="http://www.w3.org/1999/xlink" x="0px" y="0px"
	 viewBox="0 0 512 512" style="enable-background:new 0 0 512 512;" xml:space="preserve">
<circle style="fill:#71E2EF;" cx="256" cy="256" r="256"/>
<g>
	<path style="fill:#38C6D9;" d="M177.436,432.868l79.124,79.124c132.879-0.286,241.969-101.805,254.269-231.531L333.819,103.45
		L177.436,432.868z"/>
	<polygon style="fill:#38C6D9;" points="221.72,72.142 265.856,116.277 213.333,108.318 	"/>
</g>
<path style="fill:#282828;" d="M319.066,97.832h-91.51V83.609c0-7.854-6.368-14.222-14.222-14.222s-14.222,6.368-14.222,14.222
	v14.222h-6.177c-12.298,0-22.268,9.969-22.268,22.268v296.8c0,12.298,9.969,22.268,22.268,22.268h126.133
	c12.298,0,22.268-9.969,22.268-22.268v-296.8C341.333,107.801,331.364,97.832,319.066,97.832z"/>
<path style="fill:#161616;" d="M319.066,97.832h-63.641v341.333h63.641c12.298,0,22.268-9.969,22.268-22.268V120.099
	C341.333,107.801,331.364,97.832,319.066,97.832z"/>
<rect x="199.111" y="126.276" style="fill:#8C8C8C;" width="113.778" height="85.333"/>
<rect x="255.431" y="126.276" style="fill:#777777;" width="57.458" height="85.333"/>
<g>
	<path style="fill:#8C8C8C;" d="M213.333,321.939L213.333,321.939c-7.854,0-14.222-6.368-14.222-14.222l0,0
		c0-7.854,6.368-14.222,14.222-14.222l0,0c7.854,0,14.222,6.368,14.222,14.222l0,0C227.556,315.571,221.187,321.939,213.333,321.939
		z"/>
	<path style="fill:#8C8C8C;" d="M256,321.939L256,321.939c-7.854,0-14.222-6.368-14.222-14.222l0,0
		c0-7.854,6.368-14.222,14.222-14.222l0,0c7.854,0,14.222,6.368,14.222,14.222l0,0C270.222,315.571,263.854,321.939,256,321.939z"/>
</g>
<path style="fill:#5B5B5B;" d="M298.667,321.939L298.667,321.939c-7.854,0-14.222-6.368-14.222-14.222l0,0
	c0-7.854,6.368-14.222,14.222-14.222l0,0c7.854,0,14.222,6.368,14.222,14.222l0,0C312.889,315.571,306.521,321.939,298.667,321.939z
	"/>
<g>
	<path style="fill:#8C8C8C;" d="M213.333,364.606L213.333,364.606c-7.854,0-14.222-6.368-14.222-14.222l0,0
		c0-7.854,6.368-14.222,14.222-14.222l0,0c7.854,0,14.222,6.368,14.222,14.222l0,0C227.556,358.238,221.187,364.606,213.333,364.606
		z"/>
	<path style="fill:#8C8C8C;" d="M256,364.606L256,364.606c-7.854,0-14.222-6.368-14.222-14.222l0,0
		c0-7.854,6.368-14.222,14.222-14.222l0,0c7.854,0,14.222,6.368,14.222,14.222l0,0C270.222,358.238,263.854,364.606,256,364.606z"/>
</g>
<path style="fill:#5B5B5B;" d="M298.667,364.606L298.667,364.606c-7.854,0-14.222-6.368-14.222-14.222l0,0
	c0-7.854,6.368-14.222,14.222-14.222l0,0c7.854,0,14.222,6.368,14.222,14.222l0,0C312.889,358.238,306.521,364.606,298.667,364.606z
	"/>
<g>
	<path style="fill:#8C8C8C;" d="M213.333,407.273L213.333,407.273c-7.854,0-14.222-6.368-14.222-14.222l0,0
		c0-7.854,6.368-14.222,14.222-14.222l0,0c7.854,0,14.222,6.368,14.222,14.222l0,0C227.556,400.905,221.187,407.273,213.333,407.273
		z"/>
	<path style="fill:#8C8C8C;" d="M256,407.273L256,407.273c-7.854,0-14.222-6.368-14.222-14.222l0,0
		c0-7.854,6.368-14.222,14.222-14.222l0,0c7.854,0,14.222,6.368,14.222,14.222l0,0C270.222,400.905,263.854,407.273,256,407.273z"/>
</g>
<g>
	<path style="fill:#5B5B5B;" d="M256,293.495c-0.193,0-0.383,0.021-0.574,0.029v28.386c0.191,0.007,0.381,0.029,0.574,0.029
		c7.854,0,14.222-6.368,14.222-14.222S263.854,293.495,256,293.495z"/>
	<path style="fill:#5B5B5B;" d="M256,336.162c-0.193,0-0.383,0.021-0.574,0.029v28.386c0.191,0.007,0.381,0.029,0.574,0.029
		c7.854,0,14.222-6.368,14.222-14.222C270.222,342.53,263.854,336.162,256,336.162z"/>
	<path style="fill:#5B5B5B;" d="M256,378.828c-0.193,0-0.383,0.021-0.574,0.029v28.386c0.191,0.007,0.381,0.029,0.574,0.029
		c7.854,0,14.222-6.368,14.222-14.222C270.222,385.196,263.854,378.828,256,378.828z"/>
	<path style="fill:#5B5B5B;" d="M298.667,407.273L298.667,407.273c-7.854,0-14.222-6.368-14.222-14.222l0,0
		c0-7.854,6.368-14.222,14.222-14.222l0,0c7.854,0,14.222,6.368,14.222,14.222l0,0C312.889,400.905,306.521,407.273,298.667,407.273
		z"/>
</g>
<path style="fill:#18A000;" d="M236.573,268.498h-29.705c-4.284,0-7.758-3.474-7.758-7.758v-3.448c0-4.284,3.474-7.758,7.758-7.758
	h29.705c4.284,0,7.758,3.474,7.758,7.758v3.448C244.331,265.025,240.857,268.498,236.573,268.498z"/>
<path style="fill:#E03A00;" d="M305.131,268.498h-29.705c-4.284,0-7.758-3.474-7.758-7.758v-3.448c0-4.284,3.474-7.758,7.758-7.758
	h29.705c4.284,0,7.758,3.474,7.758,7.758v3.448C312.889,265.025,309.415,268.498,305.131,268.498z"/>
<g>
</g>
<g>
</g>
<g>
</g>
<g>
</g>
<g>
</g>
<g>
</g>
<g>
</g>
<g>
</g>
<g>
</g>
<g>
</g>
<g>
</g>
<g>
</g>
<g>
</g>
<g>
</g>
<g>
</g>
</svg>
