<svg width="512" height="512" viewBox="0 0 512 512" fill="none" xmlns="http://www.w3.org/2000/svg">
<ellipse cx="256.113" cy="261.629" rx="255.887" ry="250.371" fill="#EF9C23"/>
<path d="M308.274 219.95V316.55C308.274 319.117 307.341 321.333 305.474 323.2C303.608 325.067 301.391 326 298.824 326H231.974C229.408 326 227.191 325.067 225.324 323.2C223.458 321.333 222.524 319.117 222.524 316.55V222.4C222.524 209.567 216.691 203.15 205.024 203.15C193.358 203.15 187.524 209.567 187.524 222.4V316.55C187.524 319.117 186.591 321.333 184.724 323.2C182.858 325.067 180.641 326 178.074 326H111.574C109.008 326 106.791 325.067 104.924 323.2C103.058 321.333 102.124 319.117 102.124 316.55V153.45C102.124 150.883 103.058 148.667 104.924 146.8C106.791 144.933 109.008 144 111.574 144H172.824C175.391 144 177.608 144.933 179.474 146.8C181.341 148.667 182.274 150.883 182.274 153.45V165C188.341 157.767 196.508 151.933 206.774 147.5C217.274 142.833 228.474 140.5 240.374 140.5C259.508 140.5 275.608 147.267 288.674 160.8C301.741 174.1 308.274 193.817 308.274 219.95Z" fill="#433C3C"/>
<path d="M222.887 303.998V207.398C222.887 204.832 223.82 202.615 225.687 200.748C227.553 198.882 229.77 197.948 232.337 197.948H299.187C301.753 197.948 303.97 198.882 305.837 200.748C307.703 202.615 308.637 204.832 308.637 207.398V301.548C308.637 314.382 314.47 320.798 326.137 320.798C337.803 320.798 343.637 314.382 343.637 301.548V207.398C343.637 204.832 344.57 202.615 346.437 200.748C348.303 198.882 350.52 197.948 353.087 197.948H419.587C422.153 197.948 424.37 198.882 426.237 200.748C428.103 202.615 429.037 204.832 429.037 207.398V370.498C429.037 373.065 428.103 375.282 426.237 377.148C424.37 379.015 422.153 379.948 419.587 379.948H358.337C355.77 379.948 353.553 379.015 351.687 377.148C349.82 375.282 348.887 373.065 348.887 370.498V358.948C337.92 375.282 318.553 383.448 290.787 383.448C271.653 383.448 255.553 376.798 242.487 363.498C229.42 349.965 222.887 330.132 222.887 303.998Z" fill="#433C3C"/>
</svg>
